<?xml version="1.0" encoding="UTF-8"?>
<svg version="1.1" viewBox="0 0 720 480" xmlns="http://www.w3.org/2000/svg">
 <path d="m10 10h700v460h-700z" fill="#dddddd" stroke="#cccccc"/>
 <path d="m61.75 270.5q-8.856 0-15.55-3.816t-10.44-10.66q-3.672-6.912-3.672-15.98 0-6.84 2.232-12.38 2.232-5.616 6.264-9.648t9.432-6.192q5.472-2.232 11.81-2.232 9.576 0 16.13 4.32 6.552 4.248 9.648 12.1 0.144 0.432 0.144 0.576 0 0.864-0.936 1.008l-12.24 3.24q-0.288 0.144-0.432 0.144-0.648 0-1.152-0.72-3.6-6.192-11.16-6.192-4.248 0-7.488 2.016-3.24 1.944-5.04 5.544-1.8 3.528-1.8 8.424t1.8 8.496 5.04 5.544 7.488 1.944q4.392 0 7.704-1.944t4.896-6.408q0.504-1.152 1.512-0.864l12.17 3.24q1.152 0.288 0.936 1.296-1.728 5.616-5.472 9.936t-9.288 6.768q-5.472 2.448-12.53 2.448zm66.58 0q-6.552 0-12.1-2.232-5.472-2.16-9.576-6.192t-6.408-9.648q-2.232-5.616-2.232-12.38 0-6.84 2.232-12.38 2.304-5.616 6.408-9.648t9.576-6.192q5.544-2.232 12.1-2.232t12.02 2.232q5.544 2.16 9.576 6.192 4.104 4.032 6.336 9.648 2.304 5.544 2.304 12.38 0 6.768-2.304 12.38-2.232 5.616-6.336 9.648-4.032 4.032-9.576 6.192-5.472 2.232-12.02 2.232zm-14.9-30.46q0 4.68 1.872 8.352 1.872 3.6 5.256 5.616t7.776 2.016q4.464 0 7.776-2.016t5.184-5.616q1.872-3.672 1.872-8.352 0-4.752-1.872-8.352t-5.184-5.616-7.776-2.016q-4.392 0-7.776 2.016t-5.256 5.616-1.872 8.352zm59.16 29.3q-1.224 0-1.224-1.296v-56.02q0-1.296 1.224-1.296h12.96q1.08 0 1.44 0.864l17.64 29.38 17.21-29.38q0.432-0.864 1.44-0.864h12.67q1.296 0 1.296 1.296v56.02q0 1.296-1.296 1.296h-11.74q-1.296 0-1.296-1.296v-33.26l-13.46 22.54q-0.504 0.864-1.44 0.864h-7.416q-1.008 0-1.44-0.864l-13.54-21.96v32.69q0 1.296-1.224 1.296zm80.18 0q-1.224 0-1.224-1.296v-56.02q0-1.296 1.224-1.296h12.38q1.296 0 1.296 1.296v56.02q0 1.296-1.296 1.296zm29.28 0q-1.224 0-1.224-1.296v-56.02q0-1.296 1.224-1.296h12.96q1.008 0 1.512 0.864l20.95 34.85v-34.42q0-1.296 1.296-1.296h11.74q1.224 0 1.224 1.296v56.02q0 1.296-1.224 1.296h-12.89q-1.08 0-1.512-0.864l-21.02-34.99v34.56q0 1.296-1.224 1.296zm91.99 1.152q-8.856 0-15.55-3.888-6.624-3.816-10.37-10.66t-3.744-15.91q0-6.84 2.232-12.38 2.232-5.616 6.264-9.648 4.104-4.032 9.504-6.192 5.472-2.232 11.88-2.232 9.648 0 16.34 4.176 6.768 4.104 9.72 11.81 0.072 0.144 0.072 0.288 0.072 0.144 0.072 0.288 0 0.864-0.936 1.008l-12.24 3.384q-0.072 0-0.216 0.072-0.072 0-0.216 0-0.72 0-1.152-0.792-1.728-2.808-4.68-4.32t-6.48-1.512q-6.768 0-10.8 4.248-3.96 4.248-3.96 11.88t4.104 11.88q4.104 4.176 10.66 4.176 5.112 0 8.568-2.232 3.456-2.304 4.032-6.552h-11.3q-1.224 0-1.224-1.296v-8.496q0-1.296 1.224-1.296h25.06q0.504 0 0.864 0.36t0.36 0.936v6.84q0 7.344-3.24 13.25t-9.504 9.36q-6.192 3.456-15.34 3.456zm87.36 0q-8.28 0-14.18-4.032t-8.352-11.59q-0.072-0.216-0.072-0.504 0-0.864 0.936-1.08l11.09-2.736q0.144 0 0.216 0 0.144-0.072 0.216-0.072 0.864 0 1.152 0.864 1.296 3.168 3.6 4.608t5.832 1.44q2.88 0 4.68-1.008t1.8-3.024q0-2.232-1.944-3.528-1.872-1.296-5.472-2.592l-6.12-2.16q-6.696-2.304-10.66-6.696t-3.96-10.94q0-5.256 2.808-9.288t7.56-6.264q4.824-2.304 10.66-2.304 7.344 0 12.89 3.528 5.616 3.456 8.064 10.94 0.072 0.144 0.072 0.504 0 0.864-0.936 1.08l-11.59 3.168q-0.216 0.072-0.504 0.072-0.72 0-1.152-0.864-1.296-3.168-3.096-4.248-1.728-1.08-3.96-1.08-2.448 0-4.032 1.08-1.584 1.008-1.584 2.88 0 1.8 1.8 3.24 1.872 1.368 6.336 2.88l4.392 1.44q7.776 2.664 11.59 6.912 3.888 4.248 3.888 11.52 0 5.184-2.808 9.216-2.736 4.032-7.704 6.336t-11.45 2.304zm60.96 0q-6.552 0-12.1-2.232-5.472-2.16-9.576-6.192t-6.408-9.648q-2.232-5.616-2.232-12.38 0-6.84 2.232-12.38 2.304-5.616 6.408-9.648t9.576-6.192q5.544-2.232 12.1-2.232t12.02 2.232q5.544 2.16 9.576 6.192 4.104 4.032 6.336 9.648 2.304 5.544 2.304 12.38 0 6.768-2.304 12.38-2.232 5.616-6.336 9.648-4.032 4.032-9.576 6.192-5.472 2.232-12.02 2.232zm-14.9-30.46q0 4.68 1.872 8.352 1.872 3.6 5.256 5.616t7.776 2.016q4.464 0 7.776-2.016t5.184-5.616q1.872-3.672 1.872-8.352 0-4.752-1.872-8.352t-5.184-5.616-7.776-2.016q-4.392 0-7.776 2.016t-5.256 5.616-1.872 8.352zm86.52 30.46q-6.552 0-12.1-2.232-5.472-2.16-9.576-6.192t-6.408-9.648q-2.232-5.616-2.232-12.38 0-6.84 2.232-12.38 2.304-5.616 6.408-9.648t9.576-6.192q5.544-2.232 12.1-2.232t12.02 2.232q5.544 2.16 9.576 6.192 4.104 4.032 6.336 9.648 2.304 5.544 2.304 12.38 0 6.768-2.304 12.38-2.232 5.616-6.336 9.648-4.032 4.032-9.576 6.192-5.472 2.232-12.02 2.232zm-14.9-30.46q0 4.68 1.872 8.352 1.872 3.6 5.256 5.616t7.776 2.016q4.464 0 7.776-2.016t5.184-5.616q1.872-3.672 1.872-8.352 0-4.752-1.872-8.352t-5.184-5.616-7.776-2.016q-4.392 0-7.776 2.016t-5.256 5.616-1.872 8.352zm59.16 29.3q-1.224 0-1.224-1.296v-56.02q0-1.296 1.224-1.296h12.96q1.008 0 1.512 0.864l20.95 34.85v-34.42q0-1.296 1.296-1.296h11.74q1.224 0 1.224 1.296v56.02q0 1.296-1.224 1.296h-12.89q-1.08 0-1.512-0.864l-21.02-34.99v34.56q0 1.296-1.224 1.296z" fill="#ffffff" stroke="#cccccc" aria-label="COMING SOON"/>
</svg>
